<svg xmlns="http://www.w3.org/2000/svg"  viewBox="0 0 16 16" width="16px" height="16px"><path fill="#8bb7f0" d="M9.541,0.659v1.905c2.371,0.671,4.11,2.85,4.11,5.436c0,3.121-2.53,5.651-5.651,5.651 S2.349,11.121,2.349,8c0-2.1,1.156-3.916,2.857-4.89L6.5,4.404V0.5H2.596l1.258,1.258C1.835,3.102,0.5,5.393,0.5,8 c0,4.142,3.358,7.5,7.5,7.5s7.5-3.358,7.5-7.5C15.5,4.386,12.944,1.37,9.541,0.659z"/><path fill="#4e7ab5" d="M8,15.986c-4.404,0-7.987-3.582-7.987-7.986c0-2.478,1.146-4.792,3.092-6.303L1.421,0.014h5.566 v5.565L5.134,3.728C3.708,4.684,2.836,6.289,2.836,8c0,2.848,2.316,5.164,5.164,5.164S13.164,10.848,13.164,8 c0-2.3-1.544-4.343-3.755-4.968L9.054,2.932V0.061l0.586,0.122C13.318,0.951,15.987,4.238,15.987,8 C15.987,12.404,12.404,15.986,8,15.986z M3.771,0.986l0.847,0.848L4.123,2.163C2.159,3.47,0.987,5.652,0.987,8 c0,3.867,3.146,7.014,7.013,7.014S15.013,11.867,15.013,8c0-3.1-2.063-5.833-4.985-6.715v0.922 c2.438,0.854,4.11,3.185,4.11,5.793c0,3.384-2.753,6.137-6.138,6.137S1.862,11.384,1.862,8c0-2.182,1.188-4.217,3.102-5.312 l0.323-0.186l0.726,0.727V0.986H3.771z"/></svg>