<svg xmlns="http://www.w3.org/2000/svg"  viewBox="0 0 16 16" width="16px" height="16px"><path fill="#dcd5f2" d="M7.39,15.5l-0.529-2.117l-0.284-0.076c-0.936-0.25-1.789-0.742-2.467-1.419L3.901,11.68L1.81,12.278 L1.2,11.222l1.568-1.517L2.692,9.421C2.565,8.943,2.5,8.465,2.5,8s0.065-0.943,0.192-1.421l0.076-0.284L1.2,4.778L1.81,3.722 L3.901,4.32l0.208-0.208c0.678-0.678,1.531-1.169,2.467-1.419l0.284-0.076L7.39,0.5h1.22l0.529,2.117l0.284,0.076 c0.937,0.251,1.79,0.742,2.467,1.419l0.208,0.208l2.092-0.598L14.8,4.778l-1.568,1.517l0.076,0.284C13.435,7.057,13.5,7.535,13.5,8 s-0.065,0.943-0.192,1.421l-0.076,0.284l1.568,1.517l-0.609,1.056l-2.092-0.598l-0.208,0.208c-0.678,0.678-1.531,1.169-2.467,1.419 l-0.284,0.076L8.61,15.5H7.39z M8,5.5C6.622,5.5,5.5,6.622,5.5,8s1.122,2.5,2.5,2.5s2.5-1.122,2.5-2.5S9.378,5.5,8,5.5z"/><path fill="#8b75a1" d="M8.219,1l0.363,1.453l0.143,0.571l0.569,0.152c0.852,0.228,1.627,0.674,2.243,1.289l0.416,0.417 l0.566-0.162l1.434-0.41l0.219,0.38l-1.077,1.041L12.672,6.14l0.152,0.568C12.941,7.144,13,7.579,13,8s-0.059,0.856-0.176,1.292 L12.672,9.86l0.423,0.409l1.077,1.041l-0.219,0.38l-1.434-0.41l-0.566-0.162l-0.416,0.416c-0.615,0.616-1.391,1.062-2.243,1.289 l-0.569,0.152l-0.143,0.571L8.219,15H7.781l-0.363-1.453l-0.143-0.571l-0.569-0.152c-0.852-0.228-1.627-0.674-2.243-1.289 l-0.416-0.417L3.481,11.28l-1.434,0.41l-0.219-0.38l1.077-1.041L3.328,9.86L3.176,9.292C3.059,8.856,3,8.421,3,8 s0.059-0.856,0.176-1.292L3.328,6.14L2.905,5.731L1.828,4.69l0.219-0.38l1.434,0.41l0.566,0.162l0.416-0.417 C5.079,3.85,5.854,3.404,6.706,3.176l0.569-0.152l0.143-0.571L7.781,1H8.219 M8,11c1.654,0,3-1.346,3-3S9.654,5,8,5S5,6.346,5,8 S6.346,11,8,11 M9,0H7L6.447,2.21C5.415,2.487,4.49,3.025,3.756,3.759L1.572,3.134l-1,1.732L2.21,6.45C2.077,6.945,2,7.463,2,8 c0,0.537,0.077,1.055,0.21,1.55l-1.638,1.584l1,1.732l2.184-0.625c0.734,0.734,1.659,1.272,2.691,1.549L7,16h2l0.553-2.21 c1.032-0.276,1.958-0.815,2.691-1.549l2.184,0.625l1-1.732L13.79,9.55C13.923,9.055,14,8.537,14,8c0-0.537-0.077-1.055-0.21-1.55 l1.638-1.584l-1-1.732l-2.184,0.625c-0.734-0.734-1.659-1.272-2.691-1.549L9,0L9,0z M8,10c-1.105,0-2-0.895-2-2s0.895-2,2-2 s2,0.895,2,2S9.105,10,8,10L8,10z"/></svg>